<svg width="140" height="46" viewBox="0 0 140 46" fill="none" xmlns="http://www.w3.org/2000/svg">
<rect width="140" height="46" rx="7" fill="#222222"/>
<path d="M95.1135 22.0809V24.7156H93.4382V26.4434H95.1135V32.3141C95.1135 34.3188 96.0335 35.1206 98.3481 35.1206C98.7548 35.1206 99.1422 35.0729 99.4811 35.0156V33.3069C99.1906 33.3355 99.0066 33.3546 98.687 33.3546C97.6508 33.3546 97.1956 32.8773 97.1956 31.7891V26.4434H99.4811V24.7156H97.1956V22.0809H95.1135Z" fill="#F8F8F8"/>
<path d="M105.377 35.2638C108.457 35.2638 110.345 33.2305 110.345 29.8608C110.345 26.5102 108.447 24.4674 105.377 24.4674C102.298 24.4674 100.4 26.5102 100.4 29.8608C100.4 33.2305 102.288 35.2638 105.377 35.2638ZM105.377 33.4405C103.566 33.4405 102.549 32.1327 102.549 29.8608C102.549 27.608 103.566 26.2907 105.377 26.2907C107.179 26.2907 108.205 27.608 108.205 29.8608C108.205 32.1232 107.179 33.4405 105.377 33.4405Z" fill="#F8F8F8"/>
<path d="M111.961 35.0633H114.043V28.9253C114.043 27.4648 115.157 26.4816 116.735 26.4816C117.103 26.4816 117.723 26.5484 117.897 26.6057V24.5819C117.675 24.5247 117.278 24.496 116.968 24.496C115.593 24.496 114.421 25.2406 114.121 26.262H113.966V24.6679H111.961V35.0633Z" fill="#F8F8F8"/>
<path d="M123.067 26.2143C124.607 26.2143 125.614 27.2739 125.663 28.9062H120.336C120.453 27.2834 121.527 26.2143 123.067 26.2143ZM125.653 32.2568C125.266 33.0682 124.404 33.5169 123.145 33.5169C121.479 33.5169 120.404 32.3618 120.336 30.5386V30.424H127.784V29.7081C127.784 26.4434 126.011 24.4674 123.077 24.4674C120.104 24.4674 118.215 26.577 118.215 29.899C118.215 33.221 120.065 35.2638 123.087 35.2638C125.498 35.2638 127.183 34.1183 127.658 32.2568H125.653Z" fill="#F8F8F8"/>
<path d="M81.4593 31.2244C81.6199 33.7771 83.778 35.4096 86.99 35.4096C90.4228 35.4096 92.5708 33.698 92.5708 30.9672C92.5708 28.8202 91.3462 27.6329 88.3751 26.9502L86.7792 26.5644C84.8921 26.129 84.1293 25.5453 84.1293 24.5262C84.1293 23.24 85.3137 22.399 87.0903 22.399C88.7766 22.399 89.941 23.2202 90.1518 24.5361H92.3399C92.2094 22.1318 90.0614 20.4399 87.1205 20.4399C83.9587 20.4399 81.8508 22.1318 81.8508 24.6746C81.8508 26.7721 83.0453 28.0188 85.665 28.6223L87.532 29.0675C89.4491 29.5128 90.2923 30.1658 90.2923 31.2541C90.2923 32.5206 88.9673 33.4407 87.1606 33.4407C85.2234 33.4407 83.8784 32.5799 83.6877 31.2244H81.4593Z" fill="#F8F8F8"/>
<path d="M59.8908 24.496C58.4575 24.496 57.2179 25.2024 56.5788 26.3861H56.4238V24.6679H54.4192V38.519H56.5013V33.4883H56.6659C57.2179 34.586 58.4091 35.2352 59.9102 35.2352C62.5733 35.2352 64.2681 33.1637 64.2681 29.8608C64.2681 26.5579 62.5733 24.496 59.8908 24.496ZM59.3 33.3928C57.5569 33.3928 56.4626 32.0373 56.4626 29.8704C56.4626 27.6939 57.5569 26.3384 59.3097 26.3384C61.0723 26.3384 62.1278 27.6653 62.1278 29.8608C62.1278 32.0659 61.0723 33.3928 59.3 33.3928Z" fill="#F8F8F8"/>
<path d="M71.5537 24.496C70.1204 24.496 68.8809 25.2024 68.2417 26.3861H68.0868V24.6679H66.0821V38.519H68.1642V33.4883H68.3289C68.8809 34.586 70.072 35.2352 71.5731 35.2352C74.2363 35.2352 75.931 33.1637 75.931 29.8608C75.931 26.5579 74.2363 24.496 71.5537 24.496ZM70.963 33.3928C69.2198 33.3928 68.1255 32.0373 68.1255 29.8704C68.1255 27.6939 69.2198 26.3384 70.9727 26.3384C72.7352 26.3384 73.7908 27.6653 73.7908 29.8608C73.7908 32.0659 72.7352 33.3928 70.963 33.3928Z" fill="#F8F8F8"/>
<path d="M50.6835 35.0633H53.0724L47.8429 20.7862H45.4239L40.1944 35.0633H42.503L43.838 31.2739H49.3586L50.6835 35.0633ZM46.518 23.3785H46.6886L48.7864 29.4138H44.4101L46.518 23.3785Z" fill="#F8F8F8"/>
<path d="M41.593 10.0176V16.905H44.1157C46.1978 16.905 47.4035 15.6401 47.4035 13.4398C47.4035 11.2729 46.1881 10.0176 44.1157 10.0176H41.593ZM42.6776 10.9913H43.9947C45.4425 10.9913 46.2995 11.8981 46.2995 13.4541C46.2995 15.034 45.457 15.9313 43.9947 15.9313H42.6776V10.9913Z" fill="#F8F8F8"/>
<path d="M51.0961 17.0052C52.6359 17.0052 53.5801 15.9886 53.5801 14.3037C53.5801 12.6284 52.6311 11.607 51.0961 11.607C49.5563 11.607 48.6073 12.6284 48.6073 14.3037C48.6073 15.9886 49.5515 17.0052 51.0961 17.0052ZM51.0961 16.0936C50.1906 16.0936 49.6822 15.4397 49.6822 14.3037C49.6822 13.1773 50.1906 12.5186 51.0961 12.5186C51.9968 12.5186 52.51 13.1773 52.51 14.3037C52.51 15.4349 51.9968 16.0936 51.0961 16.0936Z" fill="#F8F8F8"/>
<path d="M61.621 11.7072H60.5799L59.6405 15.6735H59.5582L58.4736 11.7072H57.4761L56.3915 15.6735H56.314L55.3698 11.7072H54.3142L55.7668 16.905H56.8369L57.9216 13.0771H58.0039L59.0934 16.905H60.1732L61.621 11.7072Z" fill="#F8F8F8"/>
<path d="M62.8199 16.905H63.8609V13.8646C63.8609 13.0532 64.35 12.5473 65.1199 12.5473C65.8898 12.5473 66.2578 12.9625 66.2578 13.7978V16.905H67.2988V13.54C67.2988 12.3038 66.65 11.607 65.4733 11.607C64.6792 11.607 64.1563 11.9554 63.8997 12.5329H63.8222V11.7072H62.8199V16.905Z" fill="#F8F8F8"/>
<path d="M68.9384 16.905H69.9794V9.67871H68.9384V16.905Z" fill="#F8F8F8"/>
<path d="M73.8948 17.0052C75.4346 17.0052 76.3788 15.9886 76.3788 14.3037C76.3788 12.6284 75.4297 11.607 73.8948 11.607C72.355 11.607 71.4059 12.6284 71.4059 14.3037C71.4059 15.9886 72.3501 17.0052 73.8948 17.0052ZM73.8948 16.0936C72.9893 16.0936 72.4809 15.4397 72.4809 14.3037C72.4809 13.1773 72.9893 12.5186 73.8948 12.5186C74.7954 12.5186 75.3087 13.1773 75.3087 14.3037C75.3087 15.4349 74.7954 16.0936 73.8948 16.0936Z" fill="#F8F8F8"/>
<path d="M79.4806 16.127C78.9141 16.127 78.5025 15.8549 78.5025 15.3872C78.5025 14.929 78.8318 14.6855 79.5581 14.6378L80.8461 14.5567V14.991C80.8461 15.6354 80.2651 16.127 79.4806 16.127ZM79.2143 16.9909C79.9067 16.9909 80.483 16.6949 80.7977 16.1747H80.88V16.905H81.8823V13.3539C81.8823 12.2561 81.1366 11.607 79.8147 11.607C78.6187 11.607 77.7665 12.1797 77.66 13.0723H78.6672C78.7834 12.7048 79.1853 12.4948 79.7663 12.4948C80.4781 12.4948 80.8461 12.805 80.8461 13.3539V13.8025L79.4177 13.8837C78.1636 13.96 77.4566 14.4994 77.4566 15.4349C77.4566 16.3847 78.1975 16.9909 79.2143 16.9909Z" fill="#F8F8F8"/>
<path d="M85.4151 16.9909C86.1415 16.9909 86.7564 16.652 87.0711 16.084H87.1535V16.905H88.1509V9.67871H87.1099V12.5329H87.0324C86.7467 11.9602 86.1366 11.6213 85.4151 11.6213C84.0836 11.6213 83.2265 12.6618 83.2265 14.3037C83.2265 15.9504 84.0739 16.9909 85.4151 16.9909ZM85.7105 12.5425C86.5821 12.5425 87.1293 13.225 87.1293 14.3085C87.1293 15.3967 86.5869 16.0697 85.7105 16.0697C84.8292 16.0697 84.3015 15.4063 84.3015 14.3037C84.3015 13.2107 84.8341 12.5425 85.7105 12.5425Z" fill="#F8F8F8"/>
<path d="M94.9018 17.0052C96.4416 17.0052 97.3858 15.9886 97.3858 14.3037C97.3858 12.6284 96.4368 11.607 94.9018 11.607C93.362 11.607 92.413 12.6284 92.413 14.3037C92.413 15.9886 93.3572 17.0052 94.9018 17.0052ZM94.9018 16.0936C93.9964 16.0936 93.4879 15.4397 93.4879 14.3037C93.4879 13.1773 93.9964 12.5186 94.9018 12.5186C95.8025 12.5186 96.3157 13.1773 96.3157 14.3037C96.3157 15.4349 95.8025 16.0936 94.9018 16.0936Z" fill="#F8F8F8"/>
<path d="M98.7639 16.905H99.805V13.8646C99.805 13.0532 100.294 12.5473 101.064 12.5473C101.834 12.5473 102.202 12.9625 102.202 13.7978V16.905H103.243V13.54C103.243 12.3038 102.594 11.607 101.417 11.607C100.623 11.607 100.1 11.9554 99.8437 12.5329H99.7662V11.7072H98.7639V16.905Z" fill="#F8F8F8"/>
<path d="M108.038 10.4137V11.7311H107.2V12.595H108.038V15.5303C108.038 16.5327 108.498 16.9336 109.655 16.9336C109.858 16.9336 110.052 16.9097 110.221 16.8811V16.0267C110.076 16.0411 109.984 16.0506 109.824 16.0506C109.306 16.0506 109.079 15.812 109.079 15.2678V12.595H110.221V11.7311H109.079V10.4137H108.038Z" fill="#F8F8F8"/>
<path d="M111.619 16.905H112.66V13.8694C112.66 13.0818 113.134 12.552 113.987 12.552C114.723 12.552 115.115 12.972 115.115 13.8025V16.905H116.156V13.5496C116.156 12.3134 115.463 11.6118 114.34 11.6118C113.546 11.6118 112.989 11.9602 112.732 12.5425H112.65V9.67871H111.619V16.905Z" fill="#F8F8F8"/>
<path d="M119.911 12.4804C120.681 12.4804 121.185 13.0102 121.209 13.8264H118.546C118.604 13.015 119.141 12.4804 119.911 12.4804ZM121.204 15.5017C121.011 15.9074 120.58 16.1317 119.95 16.1317C119.117 16.1317 118.58 15.5542 118.546 14.6426V14.5853H122.27V14.2273C122.27 12.595 121.383 11.607 119.916 11.607C118.43 11.607 117.485 12.6618 117.485 14.3228C117.485 15.9838 118.41 17.0052 119.921 17.0052C121.127 17.0052 121.969 16.4324 122.207 15.5017H121.204Z" fill="#F8F8F8"/>
<path d="M28.8972 23.3457C28.9224 21.4126 29.9757 19.5834 31.6465 18.5709C30.5924 17.087 28.8269 16.1462 26.9901 16.0895C25.031 15.8868 23.1317 17.2451 22.1334 17.2451C21.1158 17.2451 19.5787 16.1097 17.9235 16.1432C15.766 16.2119 13.7547 17.421 12.7051 19.2803C10.4488 23.131 12.1318 28.7902 14.2932 31.9028C15.3745 33.4269 16.6384 35.1294 18.2921 35.0691C19.9103 35.0029 20.5147 34.0519 22.468 34.0519C24.4032 34.0519 24.9703 35.0691 26.6575 35.0307C28.394 35.0029 29.488 33.4997 30.5315 31.9612C31.3084 30.8751 31.9063 29.6749 32.3029 28.4048C30.2623 27.554 28.8995 25.5297 28.8972 23.3457Z" fill="#F8F8F8"/>
<path d="M25.7102 14.0425C26.657 12.9222 27.1234 11.4822 27.0105 10.0283C25.564 10.1781 24.2279 10.8595 23.2683 11.9369C22.33 12.9895 21.8417 14.4042 21.934 15.8025C23.381 15.8172 24.8035 15.1542 25.7102 14.0425Z" fill="#F8F8F8"/>
</svg>
