<svg width="158" height="46" viewBox="0 0 158 46" fill="none" xmlns="http://www.w3.org/2000/svg">
<rect width="158" height="46" rx="5" fill="#222222"/>
<path d="M79.7443 25.0136C76.9916 25.0136 74.748 27.071 74.748 29.9046C74.748 32.7209 76.9916 34.7955 79.7443 34.7955C82.4982 34.7955 84.7418 32.7209 84.7418 29.9046C84.7407 27.071 82.4971 25.0136 79.7443 25.0136ZM79.7443 32.8704C78.2357 32.8704 76.9355 31.648 76.9355 29.9057C76.9355 28.1451 78.2369 26.941 79.7443 26.941C81.253 26.941 82.5532 28.1451 82.5532 29.9057C82.5532 31.6468 81.253 32.8704 79.7443 32.8704ZM68.8435 25.0136C66.0908 25.0136 63.8472 27.071 63.8472 29.9046C63.8472 32.7209 66.0908 34.7955 68.8435 34.7955C71.5974 34.7955 73.841 32.7209 73.841 29.9046C73.841 27.071 71.5974 25.0136 68.8435 25.0136ZM68.8435 32.8704C67.3349 32.8704 66.0346 31.648 66.0346 29.9057C66.0346 28.1451 67.3361 26.941 68.8435 26.941C70.3521 26.941 71.6524 28.1451 71.6524 29.9057C71.6536 31.6468 70.3521 32.8704 68.8435 32.8704ZM55.8782 26.5155V28.5901H60.9318C60.7808 29.7574 60.3852 30.6095 59.7813 31.2018C59.0463 31.924 57.8959 32.7209 55.8782 32.7209C52.7673 32.7209 50.3353 30.2565 50.3353 27.1998C50.3353 24.1431 52.7673 21.6786 55.8782 21.6786C57.5565 21.6786 58.7818 22.3272 59.6865 23.161L61.1764 21.697C59.9124 20.5114 58.2353 19.604 55.8782 19.604C51.6168 19.604 48.0343 23.0126 48.0343 27.1998C48.0343 31.3869 51.6168 34.7955 55.8782 34.7955C58.1779 34.7955 59.9136 34.0538 61.2701 32.6646C62.6651 31.2938 63.0993 29.3664 63.0993 27.8104C63.0993 27.3297 63.0619 26.8847 62.9858 26.5144H55.8782V26.5155ZM108.905 28.1267C108.491 27.0342 107.227 25.0136 104.644 25.0136C102.08 25.0136 99.9485 26.9962 99.9485 29.9046C99.9485 32.6462 102.061 34.7955 104.889 34.7955C107.17 34.7955 108.49 33.4247 109.038 32.6278L107.341 31.5157C106.775 32.3311 106.002 32.8681 104.889 32.8681C103.777 32.8681 102.984 32.3679 102.475 31.3858L109.131 28.681L108.905 28.1267ZM102.117 29.7574C102.061 27.8668 103.607 26.9042 104.72 26.9042C105.587 26.9042 106.322 27.3309 106.568 27.9415L102.117 29.7574ZM96.7065 34.5H98.8928V20.1238H96.7065V34.5ZM93.1229 26.1073H93.0479C92.5576 25.5323 91.6142 25.0136 90.4275 25.0136C87.9381 25.0136 85.6571 27.163 85.6571 29.9241C85.6571 32.6657 87.9381 34.7967 90.4275 34.7967C91.6154 34.7967 92.5576 34.278 93.0479 33.6858H93.1229V34.3896C93.1229 36.2606 92.1046 37.2611 90.4649 37.2611C89.126 37.2611 88.2962 36.317 87.9568 35.52L86.0526 36.2986C86.5992 37.5946 88.0505 39.1885 90.4649 39.1885C93.0292 39.1885 95.1979 37.7062 95.1979 34.0929V25.3115H93.124V26.1073H93.1229ZM90.6159 32.8704C89.1073 32.8704 87.8445 31.6284 87.8445 29.9241C87.8445 28.2003 89.1073 26.941 90.6159 26.941C92.1046 26.941 93.2738 28.2003 93.2738 29.9241C93.2738 31.6284 92.1046 32.8704 90.6159 32.8704ZM119.151 20.1238H113.918V34.5H116.101V29.0536H119.15C121.57 29.0536 123.95 27.332 123.95 24.5893C123.95 21.8465 121.571 20.1238 119.151 20.1238ZM119.207 27.0526H116.101V22.1248H119.207C120.84 22.1248 121.766 23.4531 121.766 24.5893C121.766 25.7025 120.84 27.0526 119.207 27.0526ZM132.704 24.9883C131.122 24.9883 129.485 25.6726 128.807 27.1894L130.746 27.9841C131.16 27.1894 131.932 26.9295 132.741 26.9295C133.87 26.9295 135.019 27.5954 135.037 28.7787V28.9271C134.642 28.7051 133.794 28.3728 132.76 28.3728C130.671 28.3728 128.543 29.5009 128.543 31.6089C128.543 33.5328 130.256 34.7714 132.176 34.7714C133.643 34.7714 134.453 34.1239 134.961 33.3649H135.036V34.4747H137.145V28.9627C137.146 26.412 135.206 24.9883 132.704 24.9883ZM132.439 32.867C131.725 32.867 130.727 32.5151 130.727 31.6457C130.727 30.5359 131.97 30.1104 133.043 30.1104C134.002 30.1104 134.454 30.314 135.037 30.5911C134.868 31.924 133.701 32.867 132.439 32.867ZM144.825 25.3023L142.322 31.5353H142.247L139.649 25.3023H137.296L141.192 34.0135L138.971 38.8596H141.248L147.254 25.3023H144.825ZM125.156 34.5H127.339V20.1238H125.156V34.5Z" fill="#F8F8F8"/>
<path d="M55.4967 11.7792C55.4967 12.7429 55.2064 13.5099 54.6248 14.0826C53.9647 14.7634 53.1033 15.1038 52.0453 15.1038C51.0317 15.1038 50.1692 14.7588 49.4611 14.0688C48.7518 13.3777 48.3972 12.5221 48.3972 11.5009C48.3972 10.4785 48.7518 9.62293 49.4611 8.93293C50.1692 8.24178 51.0317 7.89678 52.0453 7.89678C52.5485 7.89678 53.0295 7.99338 53.486 8.18543C53.9436 8.37863 54.3099 8.63508 54.5838 8.95593L53.967 9.56313C53.5024 9.01688 52.8622 8.74433 52.0441 8.74433C51.3044 8.74433 50.6654 8.99963 50.1259 9.51023C49.5863 10.0208 49.3171 10.6844 49.3171 11.4997C49.3171 12.3151 49.5863 12.9786 50.1259 13.4892C50.6654 13.9998 51.3044 14.2551 52.0441 14.2551C52.8282 14.2551 53.4825 13.9987 54.0056 13.4846C54.345 13.15 54.5417 12.6842 54.5943 12.0874H52.0441V11.2582H55.4464C55.4815 11.4388 55.4967 11.6124 55.4967 11.7792Z" fill="#F8F8F8"/>
<path d="M60.8922 8.89734H57.6948V11.0846H60.5785V11.9138H57.6948V14.1011H60.8922V14.9498H56.7924V8.04979H60.8922V8.89734Z" fill="#F8F8F8"/>
<path d="M64.6969 14.9498H63.7946V8.89734H61.833V8.04979H66.6585V8.89734H64.6969V14.9498Z" fill="#F8F8F8"/>
<path d="M70.1496 14.9498V8.04979H71.052V14.9498H70.1496Z" fill="#F8F8F8"/>
<path d="M75.0537 14.9498H74.1513V8.89734H72.1898V8.04979H77.0152V8.89734H75.0537V14.9498Z" fill="#F8F8F8"/>
<path d="M86.1497 14.0585C85.4592 14.7554 84.6013 15.1039 83.5749 15.1039C82.5485 15.1039 81.6906 14.7554 81.0012 14.0585C80.3107 13.3616 79.9666 12.5083 79.9666 11.4998C79.9666 10.4912 80.3107 9.63793 81.0012 8.94103C81.6906 8.24413 82.5485 7.89453 83.5749 7.89453C84.5954 7.89453 85.4522 8.24528 86.145 8.94563C86.8379 9.64598 87.1843 10.497 87.1843 11.4998C87.1843 12.5083 86.8391 13.3616 86.1497 14.0585ZM81.6672 13.4801C82.1868 13.9976 82.8223 14.2552 83.5749 14.2552C84.3274 14.2552 84.9641 13.9964 85.4826 13.4801C86.0022 12.9626 86.2632 12.3025 86.2632 11.4998C86.2632 10.6971 86.0022 10.037 85.4826 9.51948C84.9641 9.00198 84.3274 8.74438 83.5749 8.74438C82.8223 8.74438 82.1868 9.00313 81.6672 9.51948C81.1487 10.037 80.8877 10.6971 80.8877 11.4998C80.8877 12.3025 81.1487 12.9626 81.6672 13.4801Z" fill="#F8F8F8"/>
<path d="M88.4507 14.9498V8.04979H89.5485L92.9613 13.4168H92.9999L92.9613 12.0874V8.04979H93.8636V14.9498H92.9215L89.3507 9.32169H89.3121L89.3507 10.6511V14.9498H88.4507Z" fill="#F8F8F8"/>
<path d="M55.4967 11.7792C55.4967 12.7429 55.2064 13.5099 54.6248 14.0826C53.9647 14.7634 53.1033 15.1038 52.0453 15.1038C51.0317 15.1038 50.1692 14.7588 49.4611 14.0688C48.7518 13.3777 48.3972 12.5221 48.3972 11.5009C48.3972 10.4785 48.7518 9.62293 49.4611 8.93293C50.1692 8.24178 51.0317 7.89678 52.0453 7.89678C52.5485 7.89678 53.0295 7.99338 53.486 8.18543C53.9436 8.37863 54.3099 8.63508 54.5838 8.95593L53.967 9.56313C53.5024 9.01688 52.8622 8.74433 52.0441 8.74433C51.3044 8.74433 50.6654 8.99963 50.1259 9.51023C49.5863 10.0208 49.3171 10.6844 49.3171 11.4997C49.3171 12.3151 49.5863 12.9786 50.1259 13.4892C50.6654 13.9998 51.3044 14.2551 52.0441 14.2551C52.8282 14.2551 53.4825 13.9987 54.0056 13.4846C54.345 13.15 54.5417 12.6842 54.5943 12.0874H52.0441V11.2582H55.4464C55.4815 11.4388 55.4967 11.6124 55.4967 11.7792Z" stroke="white" stroke-width="0.2" stroke-miterlimit="10"/>
<path d="M60.8922 8.89734H57.6948V11.0846H60.5785V11.9138H57.6948V14.1011H60.8922V14.9498H56.7924V8.04979H60.8922V8.89734Z" stroke="white" stroke-width="0.2" stroke-miterlimit="10"/>
<path d="M64.6969 14.9498H63.7946V8.89734H61.833V8.04979H66.6585V8.89734H64.6969V14.9498Z" stroke="white" stroke-width="0.2" stroke-miterlimit="10"/>
<path d="M70.1496 14.9498V8.04979H71.052V14.9498H70.1496Z" stroke="white" stroke-width="0.2" stroke-miterlimit="10"/>
<path d="M75.0537 14.9498H74.1513V8.89734H72.1898V8.04979H77.0152V8.89734H75.0537V14.9498Z" stroke="white" stroke-width="0.2" stroke-miterlimit="10"/>
<path d="M86.1497 14.0585C85.4592 14.7554 84.6013 15.1039 83.5749 15.1039C82.5485 15.1039 81.6906 14.7554 81.0012 14.0585C80.3107 13.3616 79.9666 12.5083 79.9666 11.4998C79.9666 10.4912 80.3107 9.63793 81.0012 8.94103C81.6906 8.24413 82.5485 7.89453 83.5749 7.89453C84.5954 7.89453 85.4522 8.24528 86.145 8.94563C86.8379 9.64598 87.1843 10.497 87.1843 11.4998C87.1843 12.5083 86.8391 13.3616 86.1497 14.0585ZM81.6672 13.4801C82.1868 13.9976 82.8223 14.2552 83.5749 14.2552C84.3274 14.2552 84.9641 13.9964 85.4826 13.4801C86.0022 12.9626 86.2632 12.3025 86.2632 11.4998C86.2632 10.6971 86.0022 10.037 85.4826 9.51948C84.9641 9.00198 84.3274 8.74438 83.5749 8.74438C82.8223 8.74438 82.1868 9.00313 81.6672 9.51948C81.1487 10.037 80.8877 10.6971 80.8877 11.4998C80.8877 12.3025 81.1487 12.9626 81.6672 13.4801Z" stroke="white" stroke-width="0.2" stroke-miterlimit="10"/>
<path d="M88.4507 14.9498V8.04979H89.5485L92.9613 13.4168H92.9999L92.9613 12.0874V8.04979H93.8636V14.9498H92.9215L89.3507 9.32169H89.3121L89.3507 10.6511V14.9498H88.4507Z" stroke="white" stroke-width="0.2" stroke-miterlimit="10"/>
<g filter="url(#filter0_ii_3_55)">
<path d="M12.214 8.66842C11.8734 9.02262 11.6721 9.57232 11.6721 10.2842V35.7176C11.6721 36.4306 11.8734 36.9791 12.214 37.3333L12.3006 37.4161L26.8003 23.1688V23.0009V22.833L12.3006 8.58447L12.214 8.66842Z" fill="url(#paint0_linear_3_55)"/>
<path d="M31.6328 27.9194L26.8003 23.1688V23.0009V22.833L31.6339 18.0835L31.7428 18.1444L37.4694 21.3414C39.1044 22.2545 39.1044 23.7484 37.4694 24.6626L31.7428 27.8596L31.6328 27.9194Z" fill="url(#paint1_linear_3_55)"/>
<g filter="url(#filter1_i_3_55)">
<path d="M31.7428 27.8586L26.7991 23.001L12.214 37.3334C12.7524 37.8946 13.643 37.9636 14.646 37.4047L31.7428 27.8586Z" fill="url(#paint2_linear_3_55)"/>
</g>
<path d="M31.7428 18.1434L14.646 8.5984C13.643 8.03835 12.7524 8.1085 12.214 8.6697L26.8003 23.0022L31.7428 18.1434Z" fill="url(#paint3_linear_3_55)"/>
</g>
<defs>
<filter id="filter0_ii_3_55" x="11.6721" y="8.21191" width="27.0236" height="29.5786" filterUnits="userSpaceOnUse" color-interpolation-filters="sRGB">
<feFlood flood-opacity="0" result="BackgroundImageFix"/>
<feBlend mode="normal" in="SourceGraphic" in2="BackgroundImageFix" result="shape"/>
<feColorMatrix in="SourceAlpha" type="matrix" values="0 0 0 0 0 0 0 0 0 0 0 0 0 0 0 0 0 0 127 0" result="hardAlpha"/>
<feOffset dy="-0.15"/>
<feComposite in2="hardAlpha" operator="arithmetic" k2="-1" k3="1"/>
<feColorMatrix type="matrix" values="0 0 0 0 0 0 0 0 0 0 0 0 0 0 0 0 0 0 0.12 0"/>
<feBlend mode="normal" in2="shape" result="effect1_innerShadow_3_55"/>
<feColorMatrix in="SourceAlpha" type="matrix" values="0 0 0 0 0 0 0 0 0 0 0 0 0 0 0 0 0 0 127 0" result="hardAlpha"/>
<feOffset dy="0.15"/>
<feComposite in2="hardAlpha" operator="arithmetic" k2="-1" k3="1"/>
<feColorMatrix type="matrix" values="0 0 0 0 1 0 0 0 0 1 0 0 0 0 1 0 0 0 0.25 0"/>
<feBlend mode="normal" in2="effect1_innerShadow_3_55" result="effect2_innerShadow_3_55"/>
</filter>
<filter id="filter1_i_3_55" x="12.214" y="23.001" width="19.5288" height="14.7896" filterUnits="userSpaceOnUse" color-interpolation-filters="sRGB">
<feFlood flood-opacity="0" result="BackgroundImageFix"/>
<feBlend mode="normal" in="SourceGraphic" in2="BackgroundImageFix" result="shape"/>
<feColorMatrix in="SourceAlpha" type="matrix" values="0 0 0 0 0 0 0 0 0 0 0 0 0 0 0 0 0 0 127 0" result="hardAlpha"/>
<feOffset dy="-0.15"/>
<feComposite in2="hardAlpha" operator="arithmetic" k2="-1" k3="1"/>
<feColorMatrix type="matrix" values="0 0 0 0 0 0 0 0 0 0 0 0 0 0 0 0 0 0 0.08 0"/>
<feBlend mode="normal" in2="shape" result="effect1_innerShadow_3_55"/>
</filter>
<linearGradient id="paint0_linear_3_55" x1="25.515" y1="10.0151" x2="6.21869" y2="29.6532" gradientUnits="userSpaceOnUse">
<stop stop-color="#00A0FF"/>
<stop offset="0.0066" stop-color="#00A1FF"/>
<stop offset="0.2601" stop-color="#00BEFF"/>
<stop offset="0.5122" stop-color="#00D2FF"/>
<stop offset="0.7604" stop-color="#00DFFF"/>
<stop offset="1" stop-color="#00E3FF"/>
</linearGradient>
<linearGradient id="paint1_linear_3_55" x1="39.5977" y1="23.0009" x2="11.2796" y2="23.0009" gradientUnits="userSpaceOnUse">
<stop stop-color="#FFE000"/>
<stop offset="0.4087" stop-color="#FFBD00"/>
<stop offset="0.7754" stop-color="#FFA500"/>
<stop offset="1" stop-color="#FF9C00"/>
</linearGradient>
<linearGradient id="paint2_linear_3_55" x1="29.0581" y1="25.639" x2="2.88984" y2="52.2707" gradientUnits="userSpaceOnUse">
<stop stop-color="#FF3A44"/>
<stop offset="1" stop-color="#C31162"/>
</linearGradient>
<linearGradient id="paint3_linear_3_55" x1="8.54066" y1="0.203171" x2="20.2255" y2="12.095" gradientUnits="userSpaceOnUse">
<stop stop-color="#32A071"/>
<stop offset="0.0685" stop-color="#2DA771"/>
<stop offset="0.4762" stop-color="#15CF74"/>
<stop offset="0.8009" stop-color="#06E775"/>
<stop offset="1" stop-color="#00F076"/>
</linearGradient>
</defs>
</svg>
